# xmcd CD database file
#
# Track frame offsets:
#	150
#	17582
#	39257
#	56845
#	74065
#	93682
#
# Disc length: 1499 seconds
#
# Revision: 0
# Processed by: cddbd v1.5.1PL0 Copyright (c) Steve Scherf et al.
# Submitted via: CDex 1.51
#
DISCID=5005d906
DTITLE=Raitt, Bonnie - Air Play Sampler - EP (1989-91)
DYEAR=1993
DGENRE=Blues
TTITLE0=Thing Called Love
TTITLE1=I Can't Make You Love Me (Edit)
TTITLE2=Nick Of Time
TTITLE3=Something To Talk About
TTITLE4=Come To Me
TTITLE5=Not The Only One (Edit)
EXTD=YEAR: 1993
EXTT0=
EXTT1=
EXTT2=
EXTT3=
EXTT4=
EXTT5=
PLAYORDER=
